<?xml version="1.0" encoding="utf-8"?>
<!-- Generator: Adobe Illustrator 24.0.1, SVG Export Plug-In . SVG Version: 6.00 Build 0)  -->
<svg version="1.1" id="Layer_1" xmlns="http://www.w3.org/2000/svg" xmlns:xlink="http://www.w3.org/1999/xlink" x="0px" y="0px"
	 viewBox="0 0 1000 1000" style="enable-background:new 0 0 1000 1000;" xml:space="preserve">
<style type="text/css">
	.st0{fill:#FFFFFF;}
</style>
<g>
	<path class="st0" d="M585.8,500l385.9-385.9c24.5-24.5,24.5-61.3,0-85.8s-61.3-24.5-85.8,0L500,414.3L114.1,28.4
		c-24.5-24.5-61.2-24.5-85.8,0c-24.5,24.5-24.5,61.3,0,85.8L411.2,500L28.4,885.9c-24.5,24.5-24.5,61.3,0,85.8
		c9.2,12.3,27.6,18.4,42.9,18.4s30.6-6.1,42.9-18.4L500,585.8l385.9,385.9c12.3,12.3,27.6,18.4,42.9,18.4s30.6-6.1,42.9-18.4
		c24.5-24.5,24.5-61.3,0-85.8L585.8,500z"/>
</g>
</svg>
